<mxfile host="Electron" modified="2023-07-10T10:36:38.125Z" agent="Mozilla/5.0 (Windows NT 10.0; Win64; x64) AppleWebKit/537.36 (KHTML, like Gecko) draw.io/21.6.1 Chrome/112.0.5615.204 Electron/24.6.1 Safari/537.36" etag="DxNuFG1C0khw1g1aGkmZ" version="21.6.1" type="device">
  <diagram name="Page-1" id="DfaM-wiBBWeSXnydS-ET">
    <mxGraphModel dx="326" dy="489" grid="1" gridSize="1" guides="1" tooltips="1" connect="1" arrows="1" fold="1" page="1" pageScale="1" pageWidth="850" pageHeight="1100" math="0" shadow="0">
      <root>
        <mxCell id="0" />
        <mxCell id="1" parent="0" />
        <mxCell id="ceHKsXQSL5z-bramrIWX-1" value="«schema»&lt;br&gt;&lt;b&gt;semio&lt;/b&gt;&lt;br&gt;(protobuf)" style="html=1;dropTarget=0;whiteSpace=wrap;align=left;verticalAlign=middle;spacing=2;fontFamily=Roboto;fontSource=https%3A%2F%2Ffonts.googleapis.com%2Fcss%3Ffamily%3DRoboto;" vertex="1" parent="1">
          <mxGeometry x="62" y="32" width="85" height="45" as="geometry" />
        </mxCell>
        <mxCell id="ceHKsXQSL5z-bramrIWX-2" value="" style="shape=module;jettyWidth=8;jettyHeight=4;" vertex="1" parent="ceHKsXQSL5z-bramrIWX-1">
          <mxGeometry x="1" width="20" height="20" relative="1" as="geometry">
            <mxPoint x="-27" y="7" as="offset" />
          </mxGeometry>
        </mxCell>
        <mxCell id="ceHKsXQSL5z-bramrIWX-3" value="«library»&lt;br&gt;«infrastructure»&lt;br&gt;&lt;b&gt;semio&lt;/b&gt;&lt;br&gt;(.NET Framework)" style="html=1;dropTarget=0;whiteSpace=wrap;align=left;verticalAlign=middle;spacing=2;fontFamily=Roboto;fontSource=https%3A%2F%2Ffonts.googleapis.com%2Fcss%3Ffamily%3DRoboto;" vertex="1" parent="1">
          <mxGeometry x="149" y="32" width="115" height="60" as="geometry" />
        </mxCell>
        <mxCell id="ceHKsXQSL5z-bramrIWX-4" value="" style="shape=module;jettyWidth=8;jettyHeight=4;" vertex="1" parent="ceHKsXQSL5z-bramrIWX-3">
          <mxGeometry x="1" width="20" height="20" relative="1" as="geometry">
            <mxPoint x="-27" y="7" as="offset" />
          </mxGeometry>
        </mxCell>
        <mxCell id="ceHKsXQSL5z-bramrIWX-5" value="«library»&lt;br&gt;«infrastructure»&lt;br&gt;&lt;b&gt;semio&lt;/b&gt;&lt;br&gt;(JavaScript)" style="html=1;dropTarget=0;whiteSpace=wrap;align=left;verticalAlign=middle;spacing=2;fontFamily=Roboto;fontSource=https%3A%2F%2Ffonts.googleapis.com%2Fcss%3Ffamily%3DRoboto;" vertex="1" parent="1">
          <mxGeometry x="266" y="32" width="115" height="60" as="geometry" />
        </mxCell>
        <mxCell id="ceHKsXQSL5z-bramrIWX-6" value="" style="shape=module;jettyWidth=8;jettyHeight=4;" vertex="1" parent="ceHKsXQSL5z-bramrIWX-5">
          <mxGeometry x="1" width="20" height="20" relative="1" as="geometry">
            <mxPoint x="-27" y="7" as="offset" />
          </mxGeometry>
        </mxCell>
        <mxCell id="ceHKsXQSL5z-bramrIWX-7" value="«library»&lt;br&gt;«infrastructure»&lt;br&gt;&lt;b&gt;semio&lt;/b&gt;&lt;br&gt;(Go)" style="html=1;dropTarget=0;whiteSpace=wrap;align=left;verticalAlign=middle;spacing=2;fontFamily=Roboto;fontSource=https%3A%2F%2Ffonts.googleapis.com%2Fcss%3Ffamily%3DRoboto;" vertex="1" parent="1">
          <mxGeometry x="383" y="32" width="115" height="60" as="geometry" />
        </mxCell>
        <mxCell id="ceHKsXQSL5z-bramrIWX-8" value="" style="shape=module;jettyWidth=8;jettyHeight=4;" vertex="1" parent="ceHKsXQSL5z-bramrIWX-7">
          <mxGeometry x="1" width="20" height="20" relative="1" as="geometry">
            <mxPoint x="-27" y="7" as="offset" />
          </mxGeometry>
        </mxCell>
        <mxCell id="ceHKsXQSL5z-bramrIWX-9" value="«library»&lt;br&gt;«infrastructure»&lt;br&gt;&lt;b&gt;semio&lt;/b&gt;&lt;br&gt;(Python)" style="html=1;dropTarget=0;whiteSpace=wrap;align=left;verticalAlign=middle;spacing=2;fontFamily=Roboto;fontSource=https%3A%2F%2Ffonts.googleapis.com%2Fcss%3Ffamily%3DRoboto;" vertex="1" parent="1">
          <mxGeometry x="500" y="32" width="115" height="60" as="geometry" />
        </mxCell>
        <mxCell id="ceHKsXQSL5z-bramrIWX-10" value="" style="shape=module;jettyWidth=8;jettyHeight=4;" vertex="1" parent="ceHKsXQSL5z-bramrIWX-9">
          <mxGeometry x="1" width="20" height="20" relative="1" as="geometry">
            <mxPoint x="-27" y="7" as="offset" />
          </mxGeometry>
        </mxCell>
        <mxCell id="ceHKsXQSL5z-bramrIWX-11" value="«library»&lt;br&gt;«infrastructure»&lt;br&gt;&lt;b&gt;semio&lt;/b&gt;&lt;br&gt;(...)" style="html=1;dropTarget=0;whiteSpace=wrap;align=left;verticalAlign=middle;spacing=2;fontFamily=Roboto;fontSource=https%3A%2F%2Ffonts.googleapis.com%2Fcss%3Ffamily%3DRoboto;" vertex="1" parent="1">
          <mxGeometry x="618" y="32" width="115" height="60" as="geometry" />
        </mxCell>
        <mxCell id="ceHKsXQSL5z-bramrIWX-12" value="" style="shape=module;jettyWidth=8;jettyHeight=4;" vertex="1" parent="ceHKsXQSL5z-bramrIWX-11">
          <mxGeometry x="1" width="20" height="20" relative="1" as="geometry">
            <mxPoint x="-27" y="7" as="offset" />
          </mxGeometry>
        </mxCell>
        <mxCell id="ceHKsXQSL5z-bramrIWX-27" value="" style="group" vertex="1" connectable="0" parent="1">
          <mxGeometry x="65" y="130" width="119" height="144" as="geometry" />
        </mxCell>
        <mxCell id="ceHKsXQSL5z-bramrIWX-13" value="«server»&lt;br&gt;«infrastructure»&lt;br&gt;&lt;b&gt;gateway&lt;/b&gt;" style="html=1;dropTarget=0;whiteSpace=wrap;align=left;verticalAlign=top;spacing=2;fontFamily=Roboto;fontSource=https%3A%2F%2Ffonts.googleapis.com%2Fcss%3Ffamily%3DRoboto;spacingTop=-7;" vertex="1" parent="ceHKsXQSL5z-bramrIWX-27">
          <mxGeometry x="5" width="114" height="144" as="geometry" />
        </mxCell>
        <mxCell id="ceHKsXQSL5z-bramrIWX-14" value="" style="shape=module;jettyWidth=8;jettyHeight=4;" vertex="1" parent="ceHKsXQSL5z-bramrIWX-13">
          <mxGeometry x="1" width="20" height="20" relative="1" as="geometry">
            <mxPoint x="-27" y="7" as="offset" />
          </mxGeometry>
        </mxCell>
        <mxCell id="ceHKsXQSL5z-bramrIWX-15" value="«service»&lt;br&gt;&lt;b&gt;grpcgateway&lt;/b&gt;" style="html=1;dropTarget=0;whiteSpace=wrap;align=left;verticalAlign=middle;spacing=2;fontFamily=Roboto;fontSource=https%3A%2F%2Ffonts.googleapis.com%2Fcss%3Ffamily%3DRoboto;spacingTop=-2;spacingLeft=6;" vertex="1" parent="ceHKsXQSL5z-bramrIWX-27">
          <mxGeometry x="9" y="47" width="107" height="30" as="geometry" />
        </mxCell>
        <mxCell id="ceHKsXQSL5z-bramrIWX-16" value="" style="shape=module;jettyWidth=8;jettyHeight=4;" vertex="1" parent="ceHKsXQSL5z-bramrIWX-15">
          <mxGeometry x="1" width="20" height="20" relative="1" as="geometry">
            <mxPoint x="-27" y="7" as="offset" />
          </mxGeometry>
        </mxCell>
        <mxCell id="ceHKsXQSL5z-bramrIWX-26" style="edgeStyle=orthogonalEdgeStyle;rounded=0;orthogonalLoop=1;jettySize=auto;html=1;exitX=1;exitY=0.5;exitDx=0;exitDy=0;entryX=0.88;entryY=1.033;entryDx=0;entryDy=0;dashed=1;entryPerimeter=0;" edge="1" parent="ceHKsXQSL5z-bramrIWX-27" source="ceHKsXQSL5z-bramrIWX-19" target="ceHKsXQSL5z-bramrIWX-15">
          <mxGeometry relative="1" as="geometry" />
        </mxCell>
        <mxCell id="ceHKsXQSL5z-bramrIWX-19" value="«service»&lt;br&gt;«COTS»&lt;br&gt;&lt;b&gt;grpc-gateway&lt;/b&gt;" style="html=1;dropTarget=0;whiteSpace=wrap;align=left;verticalAlign=middle;spacing=2;fontFamily=Roboto;fontSource=https%3A%2F%2Ffonts.googleapis.com%2Fcss%3Ffamily%3DRoboto;spacingTop=-2;spacingLeft=5;" vertex="1" parent="ceHKsXQSL5z-bramrIWX-27">
          <mxGeometry x="9" y="79" width="85" height="45" as="geometry" />
        </mxCell>
        <mxCell id="ceHKsXQSL5z-bramrIWX-20" value="" style="shape=module;jettyWidth=8;jettyHeight=4;" vertex="1" parent="ceHKsXQSL5z-bramrIWX-19">
          <mxGeometry x="1" width="20" height="20" relative="1" as="geometry">
            <mxPoint x="-27" y="7" as="offset" />
          </mxGeometry>
        </mxCell>
        <mxCell id="ceHKsXQSL5z-bramrIWX-25" style="edgeStyle=orthogonalEdgeStyle;rounded=0;orthogonalLoop=1;jettySize=auto;html=1;exitX=0;exitY=0;exitDx=79;exitDy=12.5;exitPerimeter=0;entryX=1;entryY=0.75;entryDx=0;entryDy=0;endArrow=none;endFill=0;dashed=1;dashPattern=1 1;" edge="1" parent="ceHKsXQSL5z-bramrIWX-27" source="ceHKsXQSL5z-bramrIWX-22" target="ceHKsXQSL5z-bramrIWX-19">
          <mxGeometry relative="1" as="geometry">
            <Array as="points">
              <mxPoint x="103" y="139" />
              <mxPoint x="103" y="113" />
            </Array>
          </mxGeometry>
        </mxCell>
        <mxCell id="ceHKsXQSL5z-bramrIWX-22" value="REST proxy" style="shape=note;whiteSpace=wrap;html=1;backgroundOutline=1;darkOpacity=0.05;size=9;align=left;" vertex="1" parent="ceHKsXQSL5z-bramrIWX-27">
          <mxGeometry x="9" y="126" width="79" height="16" as="geometry" />
        </mxCell>
        <mxCell id="ceHKsXQSL5z-bramrIWX-23" value="" style="rounded=0;whiteSpace=wrap;html=1;" vertex="1" parent="ceHKsXQSL5z-bramrIWX-27">
          <mxGeometry y="56" width="13" height="13" as="geometry" />
        </mxCell>
        <mxCell id="ceHKsXQSL5z-bramrIWX-24" value="" style="rounded=0;whiteSpace=wrap;html=1;" vertex="1" parent="ceHKsXQSL5z-bramrIWX-27">
          <mxGeometry y="97" width="13" height="13" as="geometry" />
        </mxCell>
      </root>
    </mxGraphModel>
  </diagram>
</mxfile>
